<svg xmlns="http://www.w3.org/2000/svg" width="40" height="38"><path fill="#fff" d="M38 17.236V36a2 2 0 0 1-2 2h-4a2 2 0 0 1-2-2V26h-8v10a2 2 0 0 1-2 2H4a2 2 0 0 1-2-2V17.236C.772 15.828 0 14.01 0 12c0-.363.099-.72.286-1.03l5.418-9.028A4.017 4.017 0 0 1 9.132 0h21.736a4.02 4.02 0 0 1 3.428 1.94l5.418 9.03c.187.31.286.667.286 1.03 0 2.01-.772 3.828-2 5.236zM30.868 4H26.44l1.522 7.608-.04.008c.028.128.078.248.078.384 0 2.206 1.794 4 4 4a4.004 4.004 0 0 0 3.968-3.498zm-14.854 8.13A3.996 3.996 0 0 0 20 16a3.996 3.996 0 0 0 3.986-3.87L22.36 4h-4.722zm-11.982.372A4.004 4.004 0 0 0 8 16c2.206 0 4-1.794 4-4 0-.136.05-.256.08-.384l-.04-.008L13.56 4H9.132zM16 22H8v6h8z"/></svg>