<svg xmlns="http://www.w3.org/2000/svg" width="26" height="107"><path fill="#dc323e" d="M8.01 7.45a25.36 25.36 0 0 0-7.45 18A25.398 25.398 0 0 0 26.04-.03a25.36 25.36 0 0 0-18 7.45"/><path fill="#dc323e" d="M18.6 32.9a25.322 25.322 0 0 1 7.44 18A25.442 25.442 0 0 1 .56 25.45a25.4 25.4 0 0 1 18 7.44"/><path fill="#dc323e" d="M8.01 63.13a25.37 25.37 0 0 0-7.45 18 25.422 25.422 0 0 0 25.48-25.48 25.31 25.31 0 0 0-18 7.44"/><path fill="#dc323e" d="M18.6 88.56a25.31 25.31 0 0 1 7.44 18A25.422 25.422 0 0 1 .56 81.08a25.37 25.37 0 0 1 18 7.45"/></svg>